<?xml version="1.0" standalone="no"?>
<!DOCTYPE svg PUBLIC "-//W3C//DTD SVG 20010904//EN"
 "http://www.w3.org/TR/2001/REC-SVG-20010904/DTD/svg10.dtd">
<svg version="1.0" xmlns="http://www.w3.org/2000/svg"
 width="32.000000pt" height="32.000000pt" viewBox="0 0 32.000000 32.000000"
 preserveAspectRatio="xMidYMid meet">

<g transform="translate(0.000000,32.000000) scale(0.100000,-0.100000)"
fill="#000000" stroke="none">
<path d="M41 276 c-17 -20 -2 -48 23 -44 24 3 34 37 14 49 -18 12 -24 11 -37
-5z"/>
<path d="M201 201 c-8 -5 -29 -7 -48 -4 l-33 6 0 -87 0 -87 28 3 c25 3 27 6
32 63 4 52 8 60 25 60 17 0 21 -8 25 -60 5 -57 7 -60 33 -63 27 -3 27 -3 27
57 0 70 -14 107 -44 115 -27 7 -28 7 -45 -3z"/>
<path d="M40 115 c0 -84 0 -85 25 -85 25 0 25 1 25 85 0 84 0 85 -25 85 -25 0
-25 -1 -25 -85z"/>
</g>
</svg>
